<svg xmlns="http://www.w3.org/2000/svg" viewBox="0 0 400 240" preserveAspectRatio="xMidYMid slice">
  <defs>
    <linearGradient id="bg" x1="0" y1="0" x2="1" y2="1"><stop offset="0" stop-color="#0E4A44"/><stop offset="1" stop-color="#062320"/></linearGradient>
    <linearGradient id="wood" x1="0" y1="0" x2="1" y2="1"><stop offset="0" stop-color="#D98A3A"/><stop offset="1" stop-color="#8A4512"/></linearGradient>
  </defs>
  <rect width="400" height="240" fill="url(#bg)"/>
  <circle cx="90" cy="60" r="80" fill="#18B4C9" opacity=".15"/>
  <g transform="translate(250 120) rotate(32)">
    <path d="M0 -95 C34 -95 40 -70 30 -52 C24 -42 24 -34 32 -24 C48 -4 46 40 30 60 C18 76 -18 76 -30 60 C-46 40 -48 -4 -32 -24 C-24 -34 -24 -42 -30 -52 C-40 -70 -34 -95 0 -95Z" fill="url(#wood)"/>
    <rect x="-7" y="-185" width="14" height="110" rx="4" fill="#2A1406"/>
    <path d="M-10 -200 q10 -16 20 0 v18 h-20z" fill="#2A1406"/>
    <g stroke="#F3E3C3" stroke-width="1.3"><path d="M-4 -182 V58M-1.3 -182 V58M1.3 -182 V58M4 -182 V58"/></g>
    <path d="M-16 -10 q-6 10 0 22 M16 -10 q6 10 0 22" stroke="#2A1406" stroke-width="3" fill="none"/>
    <rect x="-18" y="30" width="36" height="7" rx="2" fill="#2A1406"/>
  </g>
  <path d="M40 210 L300 50" stroke="#F3E3C3" stroke-width="3" stroke-linecap="round" opacity=".85"/>
  <g fill="#F3E3C3" opacity=".75"><circle cx="60" cy="150" r="5"/><circle cx="92" cy="130" r="5"/><rect x="64" y="110" width="2.5" height="40"/><rect x="96" y="90" width="2.5" height="40"/><path d="M64 110 L98 90 V96 L64 116Z"/></g>
</svg>
