<svg xmlns="http://www.w3.org/2000/svg" viewBox="0 0 400 240" preserveAspectRatio="xMidYMid slice">
  <defs>
    <linearGradient id="bg" x1="0" y1="0" x2="0" y2="1"><stop offset="0" stop-color="#2A0508"/><stop offset="1" stop-color="#120203"/></linearGradient>
    <radialGradient id="spot" cx=".5" cy=".55" r=".45"><stop offset="0" stop-color="#FFE7B0" stop-opacity=".55"/><stop offset="1" stop-color="#FFE7B0" stop-opacity="0"/></radialGradient>
    <linearGradient id="cur" x1="0" y1="0" x2="1" y2="0"><stop offset="0" stop-color="#7A0E16"/><stop offset=".5" stop-color="#B3202B"/><stop offset="1" stop-color="#6A0B12"/></linearGradient>
  </defs>
  <rect width="400" height="240" fill="url(#bg)"/>
  <ellipse cx="200" cy="140" rx="170" ry="120" fill="url(#spot)"/>
  <path d="M0 0 H110 Q90 120 70 240 H0Z" fill="url(#cur)"/><path d="M400 0 H290 Q310 120 330 240 H400Z" fill="url(#cur)"/>
  <path d="M0 0 H400 V26 Q300 44 200 30 Q100 44 0 26Z" fill="#8E1520"/>
  <g transform="translate(150 70) rotate(-12)"><path d="M0 0 Q45 -8 90 0 Q92 60 45 90 Q-2 60 0 0Z" fill="#F4E6C8"/><path d="M18 30 q10 -10 20 0" stroke="#3A0A0E" stroke-width="5" fill="none" stroke-linecap="round"/><path d="M52 30 q10 -10 20 0" stroke="#3A0A0E" stroke-width="5" fill="none" stroke-linecap="round"/><path d="M25 55 q20 22 40 0" stroke="#3A0A0E" stroke-width="6" fill="none" stroke-linecap="round"/></g>
  <g transform="translate(205 90) rotate(14)"><path d="M0 0 Q45 -8 90 0 Q92 60 45 90 Q-2 60 0 0Z" fill="#E0B94A"/><path d="M18 26 q10 10 20 0" stroke="#3A0A0E" stroke-width="5" fill="none" stroke-linecap="round"/><path d="M52 26 q10 10 20 0" stroke="#3A0A0E" stroke-width="5" fill="none" stroke-linecap="round"/><path d="M25 68 q20 -20 40 0" stroke="#3A0A0E" stroke-width="6" fill="none" stroke-linecap="round"/></g>
</svg>
