<svg xmlns="http://www.w3.org/2000/svg" viewBox="0 0 400 240" preserveAspectRatio="xMidYMid slice">
  <defs>
    <linearGradient id="bg" x1="0" y1="0" x2="1" y2="1"><stop offset="0" stop-color="#3B1A05"/><stop offset="1" stop-color="#140902"/></linearGradient>
    <radialGradient id="glow" cx=".72" cy=".35" r=".5"><stop offset="0" stop-color="#FF9F2E" stop-opacity=".7"/><stop offset="1" stop-color="#FF9F2E" stop-opacity="0"/></radialGradient>
  </defs>
  <rect width="400" height="240" fill="url(#bg)"/>
  <rect width="400" height="240" fill="url(#glow)"/>
  <circle cx="290" cy="80" r="56" fill="none" stroke="#FFB84D" stroke-width="4" opacity=".8"/>
  <g fill="#F6EAD7"><rect x="0" y="190" width="400" height="50"/></g>
  <g fill="#120802">
    <rect x="22" y="190" width="10" height="30"/><rect x="50" y="190" width="10" height="30"/><rect x="92" y="190" width="10" height="30"/><rect x="120" y="190" width="10" height="30"/><rect x="148" y="190" width="10" height="30"/>
    <rect x="190" y="190" width="10" height="30"/><rect x="218" y="190" width="10" height="30"/><rect x="260" y="190" width="10" height="30"/><rect x="288" y="190" width="10" height="30"/><rect x="316" y="190" width="10" height="30"/><rect x="358" y="190" width="10" height="30"/>
  </g>
  <g stroke="#120802" stroke-width="1.5"><path d="M14 190v50M42 190v50M70 190v50M84 190v50M112 190v50M140 190v50M168 190v50M182 190v50M210 190v50M238 190v50M252 190v50M280 190v50M308 190v50M336 190v50M350 190v50M378 190v50"/></g>
  <g fill="#FFC56B">
    <ellipse cx="80" cy="120" rx="14" ry="10" transform="rotate(-20 80 120)"/><rect x="91" y="62" width="4" height="58"/><path d="M95 62 q22 8 18 30 q-4 -14 -18 -16z"/>
    <ellipse cx="160" cy="96" rx="12" ry="9" transform="rotate(-20 160 96)"/><ellipse cx="200" cy="84" rx="12" ry="9" transform="rotate(-20 200 84)"/><rect x="170" y="44" width="4" height="50"/><rect x="210" y="32" width="4" height="50"/><path d="M170 44 L214 32 V40 L170 52Z"/>
  </g>
</svg>
