<svg xmlns="http://www.w3.org/2000/svg" viewBox="0 0 400 240" preserveAspectRatio="xMidYMid slice">
  <defs>
    <linearGradient id="bg" x1="0" y1="0" x2="1" y2="1"><stop offset="0" stop-color="#0B3A6F"/><stop offset="1" stop-color="#0A1A33"/></linearGradient>
    <linearGradient id="beam" x1="0" y1="0" x2="0" y2="1"><stop offset="0" stop-color="#7FC4FF" stop-opacity=".55"/><stop offset="1" stop-color="#7FC4FF" stop-opacity="0"/></linearGradient>
  </defs>
  <rect width="400" height="240" fill="url(#bg)"/>
  <polygon points="200,0 60,40 340,40" fill="url(#beam)" opacity=".5"/>
  <rect x="70" y="34" width="260" height="130" rx="6" fill="#E8F2FF" opacity=".92"/>
  <rect x="70" y="34" width="260" height="130" rx="6" fill="none" stroke="#9FD0FF" stroke-width="3"/>
  <g fill="#2F7DE1"><rect x="105" y="110" width="26" height="36" rx="3"/><rect x="145" y="90" width="26" height="56" rx="3"/><rect x="185" y="70" width="26" height="76" rx="3" fill="#18B4C9"/><rect x="225" y="100" width="26" height="46" rx="3"/><rect x="265" y="60" width="26" height="86" rx="3" fill="#F0A020"/></g>
  <path d="M100 80 L158 72 L198 52 L238 78 L280 44" fill="none" stroke="#0B3A6F" stroke-width="4" stroke-linecap="round" stroke-linejoin="round"/>
  <g fill="#06101F"><circle cx="330" cy="168" r="12"/><path d="M314 240 L316 190 Q330 180 344 190 L346 240 Z"/><rect x="292" y="200" width="44" height="40" rx="4" fill="#132B4D"/></g>
</svg>
